<svg width="250" height="250" viewBox="0 0 250 250" fill="none" xmlns="http://www.w3.org/2000/svg">
<path d="M0 125C0 55.9644 55.9644 0 125 0C194.036 0 250 55.9644 250 125C250 194.036 194.036 250 125 250C55.9644 250 0 194.036 0 125Z" fill="#F35D45"/>
<g clip-path="url(#clip0)">
<path d="M125.498 177.12C70.1654 176.748 60.6429 167.069 60.6429 167.069C54 80.4989 79.0467 64.1135 79.0467 64.1135C94.3813 54.0619 125.498 53.5018 125.498 53.5018C125.498 53.5018 156.615 54.0619 171.949 64.1135C171.949 64.1135 196.996 80.4952 190.353 167.065C190.353 167.065 180.835 176.748 125.498 177.12Z" fill="#B6B6B6"/>
<path d="M95.7964 52.9418L90.7885 36.1253C90.6026 35.5062 89.9349 35.1488 89.2976 35.3331L76.9374 38.8629C76.3038 39.0435 75.6361 38.6934 75.4464 38.0744L74.9835 36.5637C74.7939 35.9373 75.1694 35.2815 75.8182 35.1083L91.1262 31.0405C91.7522 30.8747 92.4009 31.2211 92.5906 31.8216L98.93 52.039C99.1273 52.6617 98.7593 53.3213 98.1182 53.5018L97.2835 53.7376C96.65 53.9182 95.9822 53.5608 95.7964 52.9418Z" fill="#AAAAAA"/>
<path d="M125.498 188.104C125.498 188.104 54.8233 182.242 62.9269 173.303C71.0343 164.368 83.1668 140.444 83.1668 140.444L125.498 134.069L167.829 140.444C167.829 140.444 179.962 164.368 188.069 173.303C196.173 182.242 125.498 188.104 125.498 188.104Z" fill="#AF8769"/>
<path d="M71.9788 43.4502C74.797 43.4502 77.0815 41.2315 77.0815 38.4945C77.0815 35.7575 74.797 33.5387 71.9788 33.5387C69.1607 33.5387 66.8762 35.7575 66.8762 38.4945C66.8762 41.2315 69.1607 43.4502 71.9788 43.4502Z" fill="#FFA89A"/>
<path d="M125.498 170.79C140.48 170.79 147.176 165.624 159.252 153.756C171.327 141.888 174.78 115.311 174.78 115.311C174.063 136.21 176.935 141.328 182.398 135.742C187.861 130.156 187 102.931 178.805 85.8968C170.61 68.8629 158.679 70.2593 155.371 69.9793C152.062 69.6993 147.753 68.0228 143.007 66.21C138.26 64.3972 125.498 63.5571 125.498 63.5571C125.498 63.5571 112.736 64.3935 107.99 66.21C103.244 68.0265 98.9339 69.6993 95.6257 69.9793C92.3175 70.2593 80.386 68.8629 72.1913 85.8968C63.9967 102.931 63.1355 130.16 68.5986 135.742C74.0617 141.324 76.9374 136.206 76.2166 115.311C76.2166 115.311 79.6651 141.888 91.7446 153.756C103.824 165.624 110.516 170.79 125.498 170.79Z" fill="#C49772"/>
<path d="M76.2204 115.311C76.2204 115.311 75.5034 91.899 88.8728 80.591C88.8728 80.591 73.6254 103.631 79.2365 129.32C79.2365 129.32 77.3699 126.015 76.2204 115.311Z" fill="#997459"/>
<path d="M174.78 115.311C174.78 115.311 175.497 91.899 162.127 80.591C162.127 80.591 177.375 103.631 171.764 129.32C171.764 129.32 173.63 126.015 174.78 115.311Z" fill="#997459"/>
<path d="M125.498 154.172C127.687 154.172 131.215 152.916 133.662 148.17C136.106 143.424 133.662 137.979 125.498 137.979C117.334 137.979 114.891 143.424 117.334 148.17C119.777 152.916 123.309 154.172 125.498 154.172Z" fill="#1C1C1C"/>
<path d="M103.175 106.932C106.063 107.127 105.118 111.192 103.847 112.448C102.576 113.704 101.449 113.513 100.804 113.144C100.804 113.144 99.4385 112.651 99.6055 110.223C99.7724 107.794 101.81 106.84 103.175 106.932Z" fill="#1C1C1C"/>
<path d="M147.096 91.0626C163.228 87.3228 163.774 112.286 157.878 120.105C151.983 127.923 144.938 124.195 138.181 113.421C131.424 102.647 137.464 93.2955 147.096 91.0626Z" fill="#997459"/>
<path d="M147.825 106.932C144.938 107.127 145.882 111.192 147.153 112.448C148.424 113.704 149.551 113.513 150.196 113.144C150.196 113.144 151.562 112.651 151.395 110.223C151.224 107.794 149.191 106.84 147.825 106.932Z" fill="#1C1C1C"/>
<path d="M195.976 102.931C193.677 61.8806 160.898 47.6396 125.498 47.6396C90.0982 47.6396 57.3235 61.8806 55.0206 102.931C52.7178 143.981 55.0206 186.427 55.0206 186.427C55.0206 186.427 52.2094 211 125.498 211C198.787 211 195.976 186.427 195.976 186.427C195.976 186.427 198.275 143.981 195.976 102.931ZM190.353 167.065C190.353 167.065 180.835 176.744 125.498 177.116C70.1655 176.744 60.643 167.065 60.643 167.065C54.0001 80.4989 79.0468 64.1135 79.0468 64.1135C94.3814 54.0619 125.498 53.5018 125.498 53.5018C125.498 53.5018 156.615 54.0619 171.95 64.1135C171.953 64.1135 197 80.4989 190.353 167.065Z" fill="#CCCCCC"/>
<path d="M83.0613 202.276V181.153C92.4409 182.378 113.968 184.827 125.039 184.827C136.11 184.827 158.559 182.378 168.4 181.153V202.276C162.249 203.959 144.966 207.327 125.039 207.327C105.111 207.327 88.7505 203.959 83.0613 202.276Z" fill="#FFA89A"/>
<path d="M94.2866 197.131C97.5154 197.131 100.133 194.589 100.133 191.453C100.133 188.317 97.5154 185.775 94.2866 185.775C91.0578 185.775 88.4403 188.317 88.4403 191.453C88.4403 194.589 91.0578 197.131 94.2866 197.131Z" fill="#FFA89A"/>
<path d="M89.6619 199.368C90.4958 199.368 91.1718 198.711 91.1718 197.901C91.1718 197.091 90.4958 196.435 89.6619 196.435C88.8279 196.435 88.1519 197.091 88.1519 197.901C88.1519 198.711 88.8279 199.368 89.6619 199.368Z" fill="#FFA89A"/>
<path d="M100.133 197.901C100.826 197.901 101.389 197.355 101.389 196.682C101.389 196.008 100.826 195.462 100.133 195.462C99.4392 195.462 98.877 196.008 98.877 196.682C98.877 197.355 99.4392 197.901 100.133 197.901Z" fill="#FFA89A"/>
<path d="M156.714 197.131C159.942 197.131 162.56 194.589 162.56 191.453C162.56 188.317 159.942 185.775 156.714 185.775C153.485 185.775 150.867 188.317 150.867 191.453C150.867 194.589 153.485 197.131 156.714 197.131Z" fill="#FFA89A"/>
<path d="M161.338 199.368C162.172 199.368 162.848 198.711 162.848 197.901C162.848 197.091 162.172 196.435 161.338 196.435C160.504 196.435 159.828 197.091 159.828 197.901C159.828 198.711 160.504 199.368 161.338 199.368Z" fill="#FFA89A"/>
<path d="M150.867 197.901C151.561 197.901 152.123 197.355 152.123 196.682C152.123 196.008 151.561 195.462 150.867 195.462C150.174 195.462 149.612 196.008 149.612 196.682C149.612 197.355 150.174 197.901 150.867 197.901Z" fill="#FFA89A"/>
<path d="M62.741 191.453L63.5339 192.083L63.1355 174.106L62.2819 173.513L62.741 191.453Z" fill="#AAAAAA"/>
<path d="M64.7783 192.57L65.5712 193.2L65.1728 175.222L64.3192 174.629L64.7783 192.57Z" fill="#AAAAAA"/>
<path d="M66.6486 193.62L67.4377 194.246L67.0432 176.269L66.1858 175.676L66.6486 193.62Z" fill="#AAAAAA"/>
<path d="M68.8756 194.596L69.6685 195.223L69.2701 177.245L68.4165 176.652L68.8756 194.596Z" fill="#AAAAAA"/>
<path d="M71.2847 195.816L72.0738 196.446L71.6792 178.469L70.8256 177.875L71.2847 195.816Z" fill="#AAAAAA"/>
<path d="M73.8379 196.759L74.627 197.389L74.2325 179.412L73.3751 178.819L73.8379 196.759Z" fill="#AAAAAA"/>
<path d="M188.255 191.453L187.466 192.083L187.861 174.106L188.718 173.513L188.255 191.453Z" fill="#AAAAAA"/>
<path d="M186.218 192.57L185.429 193.2L185.824 175.222L186.681 174.629L186.218 192.57Z" fill="#AAAAAA"/>
<path d="M184.352 193.62L183.559 194.246L183.957 176.269L184.811 175.676L184.352 193.62Z" fill="#AAAAAA"/>
<path d="M182.121 194.596L181.332 195.223L181.726 177.245L182.584 176.652L182.121 194.596Z" fill="#AAAAAA"/>
<path d="M179.715 195.816L178.923 196.446L179.317 178.469L180.174 177.875L179.715 195.816Z" fill="#AAAAAA"/>
<path d="M177.162 196.759L176.373 197.389L176.768 179.412L177.621 178.819L177.162 196.759Z" fill="#AAAAAA"/>
</g>
<defs>
<clipPath id="clip0">
<rect width="143" height="180" fill="white" transform="translate(54 31)"/>
</clipPath>
</defs>
</svg>
